<?xml version="1.0" encoding="utf-8"?>
<!-- Generator: Adobe Illustrator 22.0.0, SVG Export Plug-In . SVG Version: 6.00 Build 0)  -->
<svg version="1.1" id="Capa_1" xmlns="http://www.w3.org/2000/svg" xmlns:xlink="http://www.w3.org/1999/xlink" x="0px" y="0px"
	 viewBox="0 0 472.9 133.3" style="enable-background:new 0 0 472.9 133.3;" xml:space="preserve">
<style type="text/css">
	.st0{fill:#FFFFFF;}
</style>
<g>
	<g>
		<path class="st0" d="M77.5,41.6v10.9c-1-0.2-1.9-0.3-2.7-0.3c-4.5,0-8,1.3-10.5,3.9c-2.5,2.6-3.8,6.3-3.8,11.2v23.8H49.1v-49H60
			v7.2C63.3,44.2,69.2,41.6,77.5,41.6z"/>
		<path class="st0" d="M100,88.6c-4-2.1-7.1-5.1-9.3-8.9c-2.2-3.8-3.3-8.2-3.3-13c0-4.8,1.1-9.1,3.3-12.9c2.2-3.8,5.3-6.8,9.3-8.9
			c4-2.1,8.4-3.2,13.4-3.2c5,0,9.5,1.1,13.5,3.2c4,2.1,7.1,5.1,9.3,8.9c2.2,3.8,3.4,8.1,3.4,12.9c0,4.8-1.1,9.2-3.4,13
			c-2.2,3.8-5.3,6.8-9.3,8.9c-4,2.1-8.5,3.2-13.5,3.2C108.4,91.8,103.9,90.7,100,88.6z M123.8,77.7c2.8-2.8,4.1-6.5,4.1-11.1
			s-1.4-8.3-4.1-11.1c-2.8-2.8-6.2-4.2-10.5-4.2s-7.7,1.4-10.4,4.2c-2.7,2.8-4.1,6.5-4.1,11.1s1.4,8.3,4.1,11.1
			c2.7,2.8,6.2,4.2,10.4,4.2S121.1,80.6,123.8,77.7z"/>
		<path class="st0" d="M163.7,88.6c-4-2.1-7.1-5.1-9.3-8.9c-2.2-3.8-3.3-8.2-3.3-13c0-4.8,1.1-9.1,3.3-12.9c2.2-3.8,5.3-6.8,9.3-8.9
			c4-2.1,8.4-3.2,13.4-3.2c5,0,9.5,1.1,13.5,3.2c4,2.1,7.1,5.1,9.3,8.9c2.2,3.8,3.4,8.1,3.4,12.9c0,4.8-1.1,9.2-3.4,13
			c-2.2,3.8-5.3,6.8-9.3,8.9c-4,2.1-8.5,3.2-13.5,3.2C172.2,91.8,167.7,90.7,163.7,88.6z M187.6,77.7c2.8-2.8,4.1-6.5,4.1-11.1
			s-1.4-8.3-4.1-11.1c-2.8-2.8-6.2-4.2-10.5-4.2c-4.2,0-7.7,1.4-10.4,4.2c-2.7,2.8-4.1,6.5-4.1,11.1s1.4,8.3,4.1,11.1
			c2.7,2.8,6.2,4.2,10.4,4.2C181.4,82,184.9,80.6,187.6,77.7z"/>
		<path class="st0" d="M295.4,47c3.6,3.6,5.4,8.9,5.4,16.1v28.1h-11.5V64.5c0-4.3-0.9-7.5-2.8-9.7c-1.9-2.2-4.6-3.3-8.2-3.3
			c-3.9,0-6.9,1.3-9.3,3.8c-2.3,2.5-3.5,6.2-3.5,10.9v24.9h-11.5V64.5c0-4.3-0.9-7.5-2.8-9.7c-1.9-2.2-4.6-3.3-8.2-3.3
			c-3.9,0-7,1.3-9.3,3.8c-2.3,2.5-3.4,6.1-3.4,10.9v24.9h-11.5v-49h10.9v6.2c1.8-2.2,4.1-3.9,6.9-5c2.8-1.2,5.8-1.7,9.2-1.7
			c3.7,0,6.9,0.7,9.8,2.1c2.8,1.4,5.1,3.4,6.7,6.1c2-2.6,4.6-4.6,7.8-6c3.2-1.4,6.7-2.2,10.6-2.2C286.9,41.6,291.8,43.4,295.4,47z"
			/>
		<path class="st0" d="M323.6,90.2c-3.8-1-6.8-2.4-9.1-3.9l4.4-8.7c2.2,1.5,4.8,2.6,7.9,3.5c3.1,0.9,6.1,1.3,9.1,1.3
			c6.9,0,10.3-1.8,10.3-5.4c0-1.7-0.9-2.9-2.6-3.6c-1.7-0.7-4.5-1.3-8.4-1.9c-4-0.6-7.3-1.3-9.9-2.1c-2.5-0.8-4.7-2.2-6.6-4.2
			c-1.9-2-2.8-4.8-2.8-8.3c0-4.6,1.9-8.4,5.8-11.2c3.9-2.8,9.1-4.2,15.7-4.2c3.4,0,6.7,0.4,10.1,1.1c3.4,0.8,6.1,1.8,8.3,3.1
			l-4.4,8.7c-4.2-2.4-8.8-3.7-14-3.7c-3.4,0-5.9,0.5-7.7,1.5c-1.7,1-2.6,2.3-2.6,4c0,1.8,0.9,3.1,2.8,3.9c1.9,0.8,4.8,1.5,8.7,2.2
			c3.9,0.6,7.1,1.3,9.6,2.1c2.5,0.8,4.7,2.1,6.5,4c1.8,1.9,2.7,4.6,2.7,8.1c0,4.6-2,8.3-6,11c-4,2.8-9.4,4.1-16.2,4.1
			C331.3,91.8,327.4,91.3,323.6,90.2z"/>
	</g>
	<g>
		<polygon class="st0" points="402.6,133.3 -0.5,133.3 -0.5,0 407.1,0 407.1,31.4 391.6,31.4 391.6,15.5 15,15.5 15,117.8 
			396.2,117.8 461.9,52.3 472.9,63.2 		"/>
	</g>
</g>
</svg>
